<svg xmlns="http://www.w3.org/2000/svg" width="221.73" height="221.73" viewBox="0 0 221.73 221.73">
  <g id="Group_377" data-name="Group 377" transform="translate(0 0.001)">
    <path id="Path_367" data-name="Path 367" d="M307.694,329.048a110.865,110.865,0,1,1-110.86,110.86,110.971,110.971,0,0,1,110.86-110.86Z" transform="translate(-196.834 -329.048)" fill="#0a0a0a" fill-rule="evenodd" opacity="0.79"/>
    <path id="Path_368" data-name="Path 368" d="M213.918,336.331l76.608,44.29h0a6.238,6.238,0,0,1,2.612,2.6,7.359,7.359,0,0,1,1.05,3.124,7.482,7.482,0,0,1-1.05,3.649,4.225,4.225,0,0,1-2.074,2.114h-.538L213.918,436.9c-.512,0-1.024.512-1.549.512h-3.662c-.525,0-1.037-.512-1.549-.512-1.05-1.037-1.562-1.549-2.612-2.6a7.618,7.618,0,0,1-.525-3.636V342.054a6.555,6.555,0,0,1,.525-3.124h0a6.237,6.237,0,0,1,2.612-2.6h0a1.836,1.836,0,0,1,1.549-.538c.525,0,1.037-.512,1.562-.512h.525a1.974,1.974,0,0,1,1.575.512,1.836,1.836,0,0,1,1.549.538Z" transform="translate(-127.057 -270.015)" fill="#fefefe" fill-rule="evenodd"/>
  </g>
</svg>
